<?xml version="1.0" encoding="iso-8859-1"?>
<!-- Generator: Adobe Illustrator 22.1.0, SVG Export Plug-In . SVG Version: 6.00 Build 0)  -->
<svg xmlns="http://www.w3.org/2000/svg" xmlns:xlink="http://www.w3.org/1999/xlink" version="1.1" id="Layer_1" x="0px" y="0px" viewBox="0 0 100 100" style="enable-background:new 0 0 100 100;" xml:space="preserve" width="50px" height="50px">
<g>
	<circle style="fill:#EE3E54;" cx="13" cy="29" r="2"/>
	<circle style="fill:#F1BC19;" cx="77" cy="13" r="1"/>
	<circle style="fill:#F9DBD2;" cx="50" cy="50" r="37"/>
	<circle style="fill:#F1BC19;" cx="83" cy="15" r="4"/>
	<circle style="fill:#EE3E54;" cx="87" cy="24" r="2"/>
	<circle style="fill:#FBCD59;" cx="81" cy="76" r="2"/>
	<circle style="fill:#FBCD59;" cx="15" cy="63" r="4"/>
	<circle style="fill:#EE3E54;" cx="25" cy="87" r="2"/>
	<circle style="fill:#FFFFFF;" cx="18.5" cy="53.5" r="2.5"/>
	<circle style="fill:#F1BC19;" cx="21" cy="67" r="1"/>
	<circle style="fill:#FFFFFF;" cx="80" cy="34" r="1"/>
</g>
<g>
	<circle style="fill:#FDFCEE;" cx="50" cy="50" r="23.958"/>
	<path style="fill:#472B29;" d="M50,26.4c13.013,0,23.6,10.587,23.6,23.6S63.013,73.6,50,73.6S26.4,63.013,26.4,50   S36.987,26.4,50,26.4 M50,25c-13.807,0-25,11.193-25,25s11.193,25,25,25s25-11.193,25-25S63.807,25,50,25L50,25z"/>
	<circle style="fill:#EE3E54;" cx="49.999" cy="50.001" r="19.626"/>
	<path style="fill:#F06272;" d="M49.999,33.375c10.333,0,18.781,7.99,19.55,18.126c0.038-0.497,0.076-0.994,0.076-1.5   c0-10.839-8.787-19.626-19.626-19.626c-10.839,0-19.626,8.787-19.626,19.626c0,0.506,0.038,1.003,0.076,1.5   C31.218,41.365,39.667,33.375,49.999,33.375z"/>
	<path style="fill:#472B29;" d="M49.999,30.75c10.615,0,19.251,8.635,19.251,19.249c0,10.615-8.636,19.251-19.251,19.251   c-10.614,0-19.249-8.636-19.249-19.251C30.75,39.385,39.385,30.75,49.999,30.75 M49.999,30C38.972,30,30,38.972,30,49.999   C30,61.027,38.972,70,49.999,70C61.027,70,70,61.027,70,49.999S61.027,30,49.999,30L49.999,30z"/>
</g>
<g>
	<path style="fill:#FDFCEE;" d="M52.298,50l5.851-5.851c0.317-0.317,0.476-0.733,0.476-1.149s-0.159-0.832-0.476-1.149   c-0.634-0.634-1.664-0.634-2.298,0L50,47.702l-5.851-5.851c-0.635-0.635-1.664-0.635-2.299,0c-0.634,0.634-0.634,1.664,0,2.298   L47.702,50l-5.851,5.851c-0.635,0.635-0.635,1.664,0,2.299c0.634,0.634,1.664,0.634,2.298,0L50,52.298l5.851,5.851   c0.317,0.317,0.733,0.476,1.149,0.476s0.832-0.159,1.149-0.476c0.634-0.634,0.634-1.664,0-2.298L52.298,50z"/>
	<path style="fill:none;stroke:#472B29;stroke-width:0.75;stroke-miterlimit:10;" d="M52.298,50l5.851-5.851   c0.317-0.317,0.476-0.733,0.476-1.149s-0.159-0.832-0.476-1.149c-0.634-0.634-1.664-0.634-2.298,0L50,47.702l-5.851-5.851   c-0.635-0.635-1.664-0.635-2.299,0c-0.634,0.634-0.634,1.664,0,2.298L47.702,50l-5.851,5.851c-0.635,0.635-0.635,1.664,0,2.299   c0.634,0.634,1.664,0.634,2.298,0L50,52.298l5.851,5.851c0.317,0.317,0.733,0.476,1.149,0.476s0.832-0.159,1.149-0.476   c0.634-0.634,0.634-1.664,0-2.298L52.298,50z"/>
</g>
</svg>
